<?xml version="1.0" encoding="UTF-8" standalone="no"?>
<!DOCTYPE svg PUBLIC "-//W3C//DTD SVG 1.1//EN"
 "http://www.w3.org/Graphics/SVG/1.1/DTD/svg11.dtd">
<!-- Generated by graphviz version 2.38.0 (20140413.2041)
 -->
<!-- Title: G Pages: 1 -->
<svg width="1083pt" height="536pt"
 viewBox="0.00 0.00 1083.00 536.00" xmlns="http://www.w3.org/2000/svg" xmlns:xlink="http://www.w3.org/1999/xlink">
<g id="graph0" class="graph" transform="scale(1 1) rotate(0) translate(4 532)">
<title>G</title>
<polygon fill="white" stroke="none" points="-4,4 -4,-532 1079,-532 1079,4 -4,4"/>
<g id="clust1" class="cluster"><title>cluster_family_0</title>
</g>
<g id="clust4" class="cluster"><title>cluster_family_1</title>
</g>
<g id="clust7" class="cluster"><title>cluster_family_2</title>
</g>
<g id="clust10" class="cluster"><title>cluster_family_3</title>
</g>
<g id="clust13" class="cluster"><title>cluster_family_4</title>
</g>
<g id="clust16" class="cluster"><title>cluster_family_5</title>
</g>
<g id="clust19" class="cluster"><title>cluster_family_6</title>
</g>
<g id="clust22" class="cluster"><title>cluster_family_7</title>
</g>
<g id="clust25" class="cluster"><title>cluster_family_8</title>
</g>
<g id="clust28" class="cluster"><title>cluster_family_9</title>
</g>
<g id="clust30" class="cluster"><title>cluster_family_10</title>
</g>
<!-- union_0 -->
<g id="node1" class="node"><title>union_0</title>
<ellipse fill="#1abc9c" stroke="white" cx="818.5" cy="-178" rx="3.5" ry="3.5"/>
</g>
<!-- siblings_0 -->
<g id="node4" class="node"><title>siblings_0</title>
<polygon fill="#1abc9c" stroke="#cccccc" stroke-width="0" points="858,-178.5 851,-178.5 851,-177.5 858,-177.5 858,-178.5"/>
</g>
<!-- union_0&#45;&gt;siblings_0 -->
<g id="edge3" class="edge"><title>union_0&#45;&gt;siblings_0</title>
<path fill="none" stroke="#1abc9c" d="M822.083,-178C828.913,-178 843.732,-178 850.715,-178"/>
</g>
<!-- Leon -->
<g id="node2" class="node"><title>Leon</title>
<polygon fill="white" stroke="#cccccc" points="786,-239 606,-239 606,-203 786,-203 786,-239"/>
<text text-anchor="middle" x="696" y="-216.8" font-family="Helvetica, Arial, sans-serif" font-size="14.00">Leon</text>
</g>
<!-- Leon&#45;&gt;union_0 -->
<g id="edge1" class="edge"><title>Leon&#45;&gt;union_0</title>
<path fill="none" stroke="#1abc9c" d="M786.038,-208.5C804.794,-208.5 819,-208.5 819,-208.5 819,-208.5 819,-189.884 819,-181.74"/>
</g>
<!-- Mariam -->
<g id="node3" class="node"><title>Mariam</title>
<polygon fill="white" stroke="#cccccc" points="786,-174 606,-174 606,-138 786,-138 786,-174"/>
<text text-anchor="middle" x="696" y="-151.8" font-family="Helvetica, Arial, sans-serif" font-size="14.00">Mariam</text>
</g>
<!-- Mariam&#45;&gt;union_0 -->
<g id="edge2" class="edge"><title>Mariam&#45;&gt;union_0</title>
<path fill="none" stroke="#1abc9c" d="M786.038,-167C804.794,-167 819,-167 819,-167 819,-167 819,-171.297 819,-174.52"/>
</g>
<!-- Danya -->
<g id="node5" class="node"><title>Danya</title>
<polygon fill="white" stroke="#cccccc" points="1067,-142 887,-142 887,-106 1067,-106 1067,-142"/>
<text text-anchor="middle" x="977" y="-119.8" font-family="Helvetica, Arial, sans-serif" font-size="14.00">Danya</text>
</g>
<!-- siblings_0&#45;&gt;Danya -->
<g id="edge4" class="edge"><title>siblings_0&#45;&gt;Danya</title>
<path fill="none" stroke="#1abc9c" d="M855,-177.371C855,-171.219 855,-122 855,-122 855,-122 876.736,-122 876.736,-122"/>
<polygon fill="#1abc9c" stroke="#1abc9c" points="884.735,-112 884.736,-132 880.736,-132 880.735,-112 884.735,-112"/>
<polyline fill="none" stroke="#1abc9c" points="886.736,-122 876.736,-122 "/>
</g>
<!-- Sara -->
<g id="node6" class="node"><title>Sara</title>
<polygon fill="white" stroke="#cccccc" points="1067,-196 887,-196 887,-160 1067,-160 1067,-196"/>
<text text-anchor="middle" x="977" y="-173.8" font-family="Helvetica, Arial, sans-serif" font-size="14.00">Sara</text>
</g>
<!-- siblings_0&#45;&gt;Sara -->
<g id="edge5" class="edge"><title>siblings_0&#45;&gt;Sara</title>
<path fill="none" stroke="#1abc9c" d="M858.034,-178C858.034,-178 876.811,-178 876.811,-178"/>
<polygon fill="#1abc9c" stroke="#1abc9c" points="884.81,-168 884.811,-188 880.811,-188 880.81,-168 884.81,-168"/>
<polyline fill="none" stroke="#1abc9c" points="886.811,-178 876.811,-178 "/>
</g>
<!-- Emily -->
<g id="node7" class="node"><title>Emily</title>
<polygon fill="white" stroke="#cccccc" points="1067,-250 887,-250 887,-214 1067,-214 1067,-250"/>
<text text-anchor="middle" x="977" y="-227.8" font-family="Helvetica, Arial, sans-serif" font-size="14.00">Emily</text>
</g>
<!-- siblings_0&#45;&gt;Emily -->
<g id="edge6" class="edge"><title>siblings_0&#45;&gt;Emily</title>
<path fill="none" stroke="#1abc9c" d="M855,-178.545C855,-183.873 855,-226.5 855,-226.5 855,-226.5 876.736,-226.5 876.736,-226.5"/>
<polygon fill="#1abc9c" stroke="#1abc9c" points="884.735,-216.5 884.736,-236.5 880.736,-236.5 880.735,-216.5 884.735,-216.5"/>
<polyline fill="none" stroke="#1abc9c" points="886.736,-226.5 876.736,-226.5 "/>
</g>
<!-- union_1 -->
<g id="node8" class="node"><title>union_1</title>
<ellipse fill="#2ecc71" stroke="white" cx="537.5" cy="-288" rx="3.5" ry="3.5"/>
</g>
<!-- siblings_1 -->
<g id="node11" class="node"><title>siblings_1</title>
<polygon fill="#2ecc71" stroke="#cccccc" stroke-width="0" points="577,-288.5 570,-288.5 570,-287.5 577,-287.5 577,-288.5"/>
</g>
<!-- union_1&#45;&gt;siblings_1 -->
<g id="edge9" class="edge"><title>union_1&#45;&gt;siblings_1</title>
<path fill="none" stroke="#2ecc71" d="M541.083,-288C547.913,-288 562.732,-288 569.715,-288"/>
</g>
<!-- Ruth -->
<g id="node9" class="node"><title>Ruth</title>
<polygon fill="white" stroke="#cccccc" points="505,-360 325,-360 325,-324 505,-324 505,-360"/>
<text text-anchor="middle" x="415" y="-337.8" font-family="Helvetica, Arial, sans-serif" font-size="14.00">Ruth</text>
</g>
<!-- Ruth&#45;&gt;union_1 -->
<g id="edge7" class="edge"><title>Ruth&#45;&gt;union_1</title>
<path fill="none" stroke="#2ecc71" d="M505.038,-335.333C523.794,-335.333 538,-335.333 538,-335.333 538,-335.333 538,-302.873 538,-291.714"/>
</g>
<!-- Joseph -->
<g id="node10" class="node"><title>Joseph</title>
<polygon fill="white" stroke="#cccccc" points="505,-306 325,-306 325,-270 505,-270 505,-306"/>
<text text-anchor="middle" x="415" y="-283.8" font-family="Helvetica, Arial, sans-serif" font-size="14.00">Joseph</text>
</g>
<!-- Joseph&#45;&gt;union_1 -->
<g id="edge8" class="edge"><title>Joseph&#45;&gt;union_1</title>
<path fill="none" stroke="#2ecc71" d="M505.315,-288C517.938,-288 528.417,-288 533.733,-288"/>
</g>
<!-- siblings_1&#45;&gt;Leon -->
<g id="edge10" class="edge"><title>siblings_1&#45;&gt;Leon</title>
<path fill="none" stroke="#2ecc71" d="M575,-287.321C575,-280.674 575,-227.5 575,-227.5 575,-227.5 595.846,-227.5 595.846,-227.5"/>
<polygon fill="#2ecc71" stroke="#2ecc71" points="603.846,-217.5 603.847,-237.5 599.847,-237.5 599.846,-217.5 603.846,-217.5"/>
<polyline fill="none" stroke="#2ecc71" points="605.846,-227.5 595.846,-227.5 "/>
</g>
<!-- Zoe -->
<g id="node12" class="node"><title>Zoe</title>
<polygon fill="white" stroke="#cccccc" points="786,-306 606,-306 606,-270 786,-270 786,-306"/>
<text text-anchor="middle" x="696" y="-283.8" font-family="Helvetica, Arial, sans-serif" font-size="14.00">Zoe</text>
</g>
<!-- siblings_1&#45;&gt;Zoe -->
<g id="edge11" class="edge"><title>siblings_1&#45;&gt;Zoe</title>
<path fill="none" stroke="#2ecc71" d="M577.034,-288C577.034,-288 595.811,-288 595.811,-288"/>
<polygon fill="#2ecc71" stroke="#2ecc71" points="603.81,-278 603.811,-298 599.811,-298 599.81,-278 603.81,-278"/>
<polyline fill="none" stroke="#2ecc71" points="605.811,-288 595.811,-288 "/>
</g>
<!-- union_4 -->
<g id="node24" class="node"><title>union_4</title>
<ellipse fill="#34495e" stroke="white" cx="818.5" cy="-288" rx="3.5" ry="3.5"/>
</g>
<!-- Zoe&#45;&gt;union_4 -->
<g id="edge23" class="edge"><title>Zoe&#45;&gt;union_4</title>
<path fill="none" stroke="#34495e" d="M786.315,-288C798.938,-288 809.417,-288 814.733,-288"/>
</g>
<!-- union_2 -->
<g id="node13" class="node"><title>union_2</title>
<ellipse fill="#3498db" stroke="white" cx="537.5" cy="-80" rx="3.5" ry="3.5"/>
</g>
<!-- siblings_2 -->
<g id="node16" class="node"><title>siblings_2</title>
<polygon fill="#3498db" stroke="#cccccc" stroke-width="0" points="577,-80.5 570,-80.5 570,-79.5 577,-79.5 577,-80.5"/>
</g>
<!-- union_2&#45;&gt;siblings_2 -->
<g id="edge14" class="edge"><title>union_2&#45;&gt;siblings_2</title>
<path fill="none" stroke="#3498db" d="M541.083,-80C547.913,-80 562.732,-80 569.715,-80"/>
</g>
<!-- Anita -->
<g id="node14" class="node"><title>Anita</title>
<polygon fill="white" stroke="#cccccc" points="505,-98 325,-98 325,-62 505,-62 505,-98"/>
<text text-anchor="middle" x="415" y="-75.8" font-family="Helvetica, Arial, sans-serif" font-size="14.00">Anita</text>
</g>
<!-- Anita&#45;&gt;union_2 -->
<g id="edge12" class="edge"><title>Anita&#45;&gt;union_2</title>
<path fill="none" stroke="#3498db" d="M505.315,-80C517.938,-80 528.417,-80 533.733,-80"/>
</g>
<!-- Max -->
<g id="node15" class="node"><title>Max</title>
<polygon fill="white" stroke="#cccccc" points="505,-44 325,-44 325,-8 505,-8 505,-44"/>
<text text-anchor="middle" x="415" y="-21.8" font-family="Helvetica, Arial, sans-serif" font-size="14.00">Max</text>
</g>
<!-- Max&#45;&gt;union_2 -->
<g id="edge13" class="edge"><title>Max&#45;&gt;union_2</title>
<path fill="none" stroke="#3498db" d="M505.038,-20C523.794,-20 538,-20 538,-20 538,-20 538,-63.5095 538,-76.4264"/>
</g>
<!-- siblings_2&#45;&gt;Mariam -->
<g id="edge15" class="edge"><title>siblings_2&#45;&gt;Mariam</title>
<path fill="none" stroke="#3498db" d="M573,-80.7861C573,-88.4766 573,-150 573,-150 573,-150 595.962,-150 595.962,-150"/>
<polygon fill="#3498db" stroke="#3498db" points="603.962,-140 603.962,-160 599.962,-160 599.962,-140 603.962,-140"/>
<polyline fill="none" stroke="#3498db" points="605.962,-150 595.962,-150 "/>
</g>
<!-- David -->
<g id="node17" class="node"><title>David</title>
<polygon fill="white" stroke="#cccccc" points="786,-44 606,-44 606,-8 786,-8 786,-44"/>
<text text-anchor="middle" x="696" y="-21.8" font-family="Helvetica, Arial, sans-serif" font-size="14.00">David</text>
</g>
<!-- siblings_2&#45;&gt;David -->
<g id="edge16" class="edge"><title>siblings_2&#45;&gt;David</title>
<path fill="none" stroke="#3498db" d="M574,-79.4609C574,-74.1875 574,-32 574,-32 574,-32 595.736,-32 595.736,-32"/>
<polygon fill="#3498db" stroke="#3498db" points="603.735,-22 603.736,-42 599.736,-42.0001 599.735,-22.0001 603.735,-22"/>
<polyline fill="none" stroke="#3498db" points="605.736,-32 595.736,-32.0001 "/>
</g>
<!-- Selma -->
<g id="node18" class="node"><title>Selma</title>
<polygon fill="white" stroke="#cccccc" points="786,-98 606,-98 606,-62 786,-62 786,-98"/>
<text text-anchor="middle" x="696" y="-75.8" font-family="Helvetica, Arial, sans-serif" font-size="14.00">Selma</text>
</g>
<!-- siblings_2&#45;&gt;Selma -->
<g id="edge17" class="edge"><title>siblings_2&#45;&gt;Selma</title>
<path fill="none" stroke="#3498db" d="M577.034,-80C577.034,-80 595.811,-80 595.811,-80"/>
<polygon fill="#3498db" stroke="#3498db" points="603.81,-70 603.811,-90 599.811,-90.0001 599.81,-70.0001 603.81,-70"/>
<polyline fill="none" stroke="#3498db" points="605.811,-80 595.811,-80.0001 "/>
</g>
<!-- union_3 -->
<g id="node19" class="node"><title>union_3</title>
<ellipse fill="#9b59b6" stroke="white" cx="256.5" cy="-400" rx="3.5" ry="3.5"/>
</g>
<!-- siblings_3 -->
<g id="node22" class="node"><title>siblings_3</title>
<polygon fill="#9b59b6" stroke="#cccccc" stroke-width="0" points="296,-400.5 289,-400.5 289,-399.5 296,-399.5 296,-400.5"/>
</g>
<!-- union_3&#45;&gt;siblings_3 -->
<g id="edge20" class="edge"><title>union_3&#45;&gt;siblings_3</title>
<path fill="none" stroke="#9b59b6" d="M260.083,-400C266.913,-400 281.732,-400 288.715,-400"/>
</g>
<!-- Helen -->
<g id="node20" class="node"><title>Helen</title>
<polygon fill="white" stroke="#cccccc" points="224,-409 44,-409 44,-373 224,-373 224,-409"/>
<text text-anchor="middle" x="134" y="-386.8" font-family="Helvetica, Arial, sans-serif" font-size="14.00">Helen</text>
</g>
<!-- Helen&#45;&gt;union_3 -->
<g id="edge18" class="edge"><title>Helen&#45;&gt;union_3</title>
<path fill="none" stroke="#9b59b6" d="M224.315,-400C236.938,-400 247.417,-400 252.733,-400"/>
</g>
<!-- Theodore -->
<g id="node21" class="node"><title>Theodore</title>
<polygon fill="white" stroke="#cccccc" points="224,-463 44,-463 44,-427 224,-427 224,-463"/>
<text text-anchor="middle" x="134" y="-440.8" font-family="Helvetica, Arial, sans-serif" font-size="14.00">Theodore</text>
</g>
<!-- Theodore&#45;&gt;union_3 -->
<g id="edge19" class="edge"><title>Theodore&#45;&gt;union_3</title>
<path fill="none" stroke="#9b59b6" d="M224.038,-430.5C242.794,-430.5 257,-430.5 257,-430.5 257,-430.5 257,-411.884 257,-403.74"/>
</g>
<!-- siblings_3&#45;&gt;Ruth -->
<g id="edge21" class="edge"><title>siblings_3&#45;&gt;Ruth</title>
<path fill="none" stroke="#9b59b6" d="M292,-399.321C292,-392.674 292,-339.5 292,-339.5 292,-339.5 314.962,-339.5 314.962,-339.5"/>
<polygon fill="#9b59b6" stroke="#9b59b6" points="322.962,-329.5 322.962,-349.5 318.962,-349.5 318.962,-329.5 322.962,-329.5"/>
<polyline fill="none" stroke="#9b59b6" points="324.962,-339.5 314.962,-339.5 "/>
</g>
<!-- Cynthia -->
<g id="node23" class="node"><title>Cynthia</title>
<polygon fill="white" stroke="#cccccc" points="505,-427 325,-427 325,-391 505,-391 505,-427"/>
<text text-anchor="middle" x="415" y="-404.8" font-family="Helvetica, Arial, sans-serif" font-size="14.00">Cynthia</text>
</g>
<!-- siblings_3&#45;&gt;Cynthia -->
<g id="edge22" class="edge"><title>siblings_3&#45;&gt;Cynthia</title>
<path fill="none" stroke="#9b59b6" d="M296.034,-400C296.034,-400 314.811,-400 314.811,-400"/>
<polygon fill="#9b59b6" stroke="#9b59b6" points="322.81,-390 322.811,-410 318.811,-410 318.81,-390 322.81,-390"/>
<polyline fill="none" stroke="#9b59b6" points="324.811,-400 314.811,-400 "/>
</g>
<!-- union_5 -->
<g id="node28" class="node"><title>union_5</title>
<ellipse fill="#f1c40f" stroke="white" cx="537.5" cy="-416" rx="3.5" ry="3.5"/>
</g>
<!-- Cynthia&#45;&gt;union_5 -->
<g id="edge27" class="edge"><title>Cynthia&#45;&gt;union_5</title>
<path fill="none" stroke="#f1c40f" d="M505.315,-416C517.938,-416 528.417,-416 533.733,-416"/>
</g>
<!-- siblings_4 -->
<g id="node25" class="node"><title>siblings_4</title>
<polygon fill="#34495e" stroke="#cccccc" stroke-width="0" points="858,-288.5 851,-288.5 851,-287.5 858,-287.5 858,-288.5"/>
</g>
<!-- union_4&#45;&gt;siblings_4 -->
<g id="edge24" class="edge"><title>union_4&#45;&gt;siblings_4</title>
<path fill="none" stroke="#34495e" d="M822.083,-288C828.913,-288 843.732,-288 850.715,-288"/>
</g>
<!-- Joana -->
<g id="node26" class="node"><title>Joana</title>
<polygon fill="white" stroke="#cccccc" points="1067,-304 887,-304 887,-268 1067,-268 1067,-304"/>
<text text-anchor="middle" x="977" y="-281.8" font-family="Helvetica, Arial, sans-serif" font-size="14.00">Joana</text>
</g>
<!-- siblings_4&#45;&gt;Joana -->
<g id="edge25" class="edge"><title>siblings_4&#45;&gt;Joana</title>
<path fill="none" stroke="#34495e" d="M858.034,-288C858.034,-288 876.811,-288 876.811,-288"/>
<polygon fill="#34495e" stroke="#34495e" points="884.81,-278 884.811,-298 880.811,-298 880.81,-278 884.81,-278"/>
<polyline fill="none" stroke="#34495e" points="886.811,-288 876.811,-288 "/>
</g>
<!-- Alicia -->
<g id="node27" class="node"><title>Alicia</title>
<polygon fill="white" stroke="#cccccc" points="1067,-358 887,-358 887,-322 1067,-322 1067,-358"/>
<text text-anchor="middle" x="977" y="-335.8" font-family="Helvetica, Arial, sans-serif" font-size="14.00">Alicia</text>
</g>
<!-- siblings_4&#45;&gt;Alicia -->
<g id="edge26" class="edge"><title>siblings_4&#45;&gt;Alicia</title>
<path fill="none" stroke="#34495e" d="M854,-288.659C854,-295.104 854,-346.667 854,-346.667 854,-346.667 876.962,-346.667 876.962,-346.667"/>
<polygon fill="#34495e" stroke="#34495e" points="884.962,-336.667 884.962,-356.667 880.962,-356.667 880.962,-336.667 884.962,-336.667"/>
<polyline fill="none" stroke="#34495e" points="886.962,-346.667 876.962,-346.667 "/>
</g>
<!-- siblings_5 -->
<g id="node29" class="node"><title>siblings_5</title>
<polygon fill="#f1c40f" stroke="#cccccc" stroke-width="0" points="577,-416.5 570,-416.5 570,-415.5 577,-415.5 577,-416.5"/>
</g>
<!-- union_5&#45;&gt;siblings_5 -->
<g id="edge28" class="edge"><title>union_5&#45;&gt;siblings_5</title>
<path fill="none" stroke="#f1c40f" d="M541.083,-416C547.913,-416 562.732,-416 569.715,-416"/>
</g>
<!-- Barry -->
<g id="node30" class="node"><title>Barry</title>
<polygon fill="white" stroke="#cccccc" points="786,-434 606,-434 606,-398 786,-398 786,-434"/>
<text text-anchor="middle" x="696" y="-411.8" font-family="Helvetica, Arial, sans-serif" font-size="14.00">Barry</text>
</g>
<!-- siblings_5&#45;&gt;Barry -->
<g id="edge29" class="edge"><title>siblings_5&#45;&gt;Barry</title>
<path fill="none" stroke="#f1c40f" d="M577.034,-416C577.034,-416 595.811,-416 595.811,-416"/>
<polygon fill="#f1c40f" stroke="#f1c40f" points="603.81,-406 603.811,-426 599.811,-426 599.81,-406 603.81,-406"/>
<polyline fill="none" stroke="#f1c40f" points="605.811,-416 595.811,-416 "/>
</g>
<!-- DavidCousin -->
<g id="node31" class="node"><title>DavidCousin</title>
<polygon fill="white" stroke="#cccccc" points="786,-488 606,-488 606,-452 786,-452 786,-488"/>
<text text-anchor="middle" x="696" y="-465.8" font-family="Helvetica, Arial, sans-serif" font-size="14.00">DavidCousin</text>
</g>
<!-- siblings_5&#45;&gt;DavidCousin -->
<g id="edge30" class="edge"><title>siblings_5&#45;&gt;DavidCousin</title>
<path fill="none" stroke="#f1c40f" d="M574,-416.72C574,-422.231 574,-457.5 574,-457.5 574,-457.5 595.736,-457.5 595.736,-457.5"/>
<polygon fill="#f1c40f" stroke="#f1c40f" points="603.735,-447.5 603.736,-467.5 599.736,-467.5 599.735,-447.5 603.735,-447.5"/>
<polyline fill="none" stroke="#f1c40f" points="605.736,-457.5 595.736,-457.5 "/>
</g>
<!-- union_6 -->
<g id="node32" class="node"><title>union_6</title>
<ellipse fill="#e67e22" stroke="white" cx="818.5" cy="-443" rx="3.5" ry="3.5"/>
</g>
<!-- Barry&#45;&gt;union_6 -->
<g id="edge31" class="edge"><title>Barry&#45;&gt;union_6</title>
<path fill="none" stroke="#e67e22" d="M786.038,-421C804.794,-421 819,-421 819,-421 819,-421 819,-432.865 819,-439.168"/>
</g>
<!-- siblings_6 -->
<g id="node33" class="node"><title>siblings_6</title>
<polygon fill="#e67e22" stroke="#cccccc" stroke-width="0" points="858,-443.5 851,-443.5 851,-442.5 858,-442.5 858,-443.5"/>
</g>
<!-- union_6&#45;&gt;siblings_6 -->
<g id="edge32" class="edge"><title>union_6&#45;&gt;siblings_6</title>
<path fill="none" stroke="#e67e22" d="M822.083,-443C828.913,-443 843.732,-443 850.715,-443"/>
</g>
<!-- Jeremy -->
<g id="node34" class="node"><title>Jeremy</title>
<polygon fill="white" stroke="#cccccc" points="1067,-412 887,-412 887,-376 1067,-376 1067,-412"/>
<text text-anchor="middle" x="977" y="-389.8" font-family="Helvetica, Arial, sans-serif" font-size="14.00">Jeremy</text>
</g>
<!-- siblings_6&#45;&gt;Jeremy -->
<g id="edge33" class="edge"><title>siblings_6&#45;&gt;Jeremy</title>
<path fill="none" stroke="#e67e22" d="M856,-442.34C856,-437.294 856,-405 856,-405 856,-405 876.846,-405 876.846,-405"/>
<polygon fill="#e67e22" stroke="#e67e22" points="884.846,-395 884.847,-415 880.847,-415 880.846,-395 884.846,-395"/>
<polyline fill="none" stroke="#e67e22" points="886.846,-405 876.846,-405 "/>
</g>
<!-- Tamaria -->
<g id="node35" class="node"><title>Tamaria</title>
<polygon fill="white" stroke="#cccccc" points="1067,-466 887,-466 887,-430 1067,-430 1067,-466"/>
<text text-anchor="middle" x="977" y="-443.8" font-family="Helvetica, Arial, sans-serif" font-size="14.00">Tamaria</text>
</g>
<!-- siblings_6&#45;&gt;Tamaria -->
<g id="edge34" class="edge"><title>siblings_6&#45;&gt;Tamaria</title>
<path fill="none" stroke="#e67e22" d="M858.034,-443C858.034,-443 876.811,-443 876.811,-443"/>
<polygon fill="#e67e22" stroke="#e67e22" points="884.81,-433 884.811,-453 880.811,-453 880.81,-433 884.81,-433"/>
<polyline fill="none" stroke="#e67e22" points="886.811,-443 876.811,-443 "/>
</g>
<!-- Aviva -->
<g id="node36" class="node"><title>Aviva</title>
<polygon fill="white" stroke="#cccccc" points="1067,-520 887,-520 887,-484 1067,-484 1067,-520"/>
<text text-anchor="middle" x="977" y="-497.8" font-family="Helvetica, Arial, sans-serif" font-size="14.00">Aviva</text>
</g>
<!-- siblings_6&#45;&gt;Aviva -->
<g id="edge35" class="edge"><title>siblings_6&#45;&gt;Aviva</title>
<path fill="none" stroke="#e67e22" d="M855,-443.668C855,-450.205 855,-502.5 855,-502.5 855,-502.5 876.736,-502.5 876.736,-502.5"/>
<polygon fill="#e67e22" stroke="#e67e22" points="884.735,-492.5 884.736,-512.5 880.736,-512.5 880.735,-492.5 884.735,-492.5"/>
<polyline fill="none" stroke="#e67e22" points="886.736,-502.5 876.736,-502.5 "/>
</g>
<!-- union_7 -->
<g id="node37" class="node"><title>union_7</title>
<ellipse fill="#e74c3c" stroke="white" cx="256.5" cy="-234" rx="3.5" ry="3.5"/>
</g>
<!-- siblings_7 -->
<g id="node40" class="node"><title>siblings_7</title>
<polygon fill="#e74c3c" stroke="#cccccc" stroke-width="0" points="296,-234.5 289,-234.5 289,-233.5 296,-233.5 296,-234.5"/>
</g>
<!-- union_7&#45;&gt;siblings_7 -->
<g id="edge38" class="edge"><title>union_7&#45;&gt;siblings_7</title>
<path fill="none" stroke="#e74c3c" d="M260.083,-234C266.913,-234 281.732,-234 288.715,-234"/>
</g>
<!-- Jacob -->
<g id="node38" class="node"><title>Jacob</title>
<polygon fill="white" stroke="#cccccc" points="224,-252 44,-252 44,-216 224,-216 224,-252"/>
<text text-anchor="middle" x="134" y="-229.8" font-family="Helvetica, Arial, sans-serif" font-size="14.00">Jacob</text>
</g>
<!-- Jacob&#45;&gt;union_7 -->
<g id="edge36" class="edge"><title>Jacob&#45;&gt;union_7</title>
<path fill="none" stroke="#e74c3c" d="M224.315,-234C236.938,-234 247.417,-234 252.733,-234"/>
</g>
<!-- Sarah -->
<g id="node39" class="node"><title>Sarah</title>
<polygon fill="white" stroke="#cccccc" points="224,-198 44,-198 44,-162 224,-162 224,-198"/>
<text text-anchor="middle" x="134" y="-175.8" font-family="Helvetica, Arial, sans-serif" font-size="14.00">Sarah</text>
</g>
<!-- Sarah&#45;&gt;union_7 -->
<g id="edge37" class="edge"><title>Sarah&#45;&gt;union_7</title>
<path fill="none" stroke="#e74c3c" d="M224.038,-186C242.794,-186 257,-186 257,-186 257,-186 257,-218.918 257,-230.234"/>
</g>
<!-- siblings_7&#45;&gt;Joseph -->
<g id="edge39" class="edge"><title>siblings_7&#45;&gt;Joseph</title>
<path fill="none" stroke="#e74c3c" d="M294,-234.606C294,-240.539 294,-288 294,-288 294,-288 314.846,-288 314.846,-288"/>
<polygon fill="#e74c3c" stroke="#e74c3c" points="322.846,-278 322.847,-298 318.847,-298 318.846,-278 322.846,-278"/>
<polyline fill="none" stroke="#e74c3c" points="324.846,-288 314.846,-288 "/>
</g>
<!-- Julian -->
<g id="node41" class="node"><title>Julian</title>
<polygon fill="white" stroke="#cccccc" points="505,-198 325,-198 325,-162 505,-162 505,-198"/>
<text text-anchor="middle" x="415" y="-175.8" font-family="Helvetica, Arial, sans-serif" font-size="14.00">Julian</text>
</g>
<!-- siblings_7&#45;&gt;Julian -->
<g id="edge40" class="edge"><title>siblings_7&#45;&gt;Julian</title>
<path fill="none" stroke="#e74c3c" d="M293,-233.326C293,-226.734 293,-174 293,-174 293,-174 314.736,-174 314.736,-174"/>
<polygon fill="#e74c3c" stroke="#e74c3c" points="322.735,-164 322.736,-184 318.736,-184 318.735,-164 322.735,-164"/>
<polyline fill="none" stroke="#e74c3c" points="324.736,-174 314.736,-174 "/>
</g>
<!-- Julie -->
<g id="node42" class="node"><title>Julie</title>
<polygon fill="white" stroke="#cccccc" points="505,-252 325,-252 325,-216 505,-216 505,-252"/>
<text text-anchor="middle" x="415" y="-229.8" font-family="Helvetica, Arial, sans-serif" font-size="14.00">Julie</text>
</g>
<!-- siblings_7&#45;&gt;Julie -->
<g id="edge41" class="edge"><title>siblings_7&#45;&gt;Julie</title>
<path fill="none" stroke="#e74c3c" d="M296.034,-234C296.034,-234 314.811,-234 314.811,-234"/>
<polygon fill="#e74c3c" stroke="#e74c3c" points="322.81,-224 322.811,-244 318.811,-244 318.81,-224 322.81,-224"/>
<polyline fill="none" stroke="#e74c3c" points="324.811,-234 314.811,-234 "/>
</g>
<!-- union_8 -->
<g id="node43" class="node"><title>union_8</title>
<ellipse fill="#1abc9c" stroke="white" cx="256.5" cy="-499" rx="3.5" ry="3.5"/>
</g>
<!-- siblings_8 -->
<g id="node45" class="node"><title>siblings_8</title>
<polygon fill="#1abc9c" stroke="#cccccc" stroke-width="0" points="296,-499.5 289,-499.5 289,-498.5 296,-498.5 296,-499.5"/>
</g>
<!-- union_8&#45;&gt;siblings_8 -->
<g id="edge43" class="edge"><title>union_8&#45;&gt;siblings_8</title>
<path fill="none" stroke="#1abc9c" d="M260.083,-499C266.913,-499 281.732,-499 288.715,-499"/>
</g>
<!-- Bernard -->
<g id="node44" class="node"><title>Bernard</title>
<polygon fill="white" stroke="#cccccc" points="224,-517 44,-517 44,-481 224,-481 224,-517"/>
<text text-anchor="middle" x="134" y="-494.8" font-family="Helvetica, Arial, sans-serif" font-size="14.00">Bernard</text>
</g>
<!-- Bernard&#45;&gt;union_8 -->
<g id="edge42" class="edge"><title>Bernard&#45;&gt;union_8</title>
<path fill="none" stroke="#1abc9c" d="M224.315,-499C236.938,-499 247.417,-499 252.733,-499"/>
</g>
<!-- Sarah Harris -->
<g id="node46" class="node"><title>Sarah Harris</title>
<polygon fill="white" stroke="#cccccc" points="505,-517 325,-517 325,-481 505,-481 505,-517"/>
<text text-anchor="middle" x="415" y="-494.8" font-family="Helvetica, Arial, sans-serif" font-size="14.00">Sarah Harris</text>
</g>
<!-- siblings_8&#45;&gt;Sarah Harris -->
<g id="edge44" class="edge"><title>siblings_8&#45;&gt;Sarah Harris</title>
<path fill="none" stroke="#1abc9c" d="M296.034,-499C296.034,-499 314.811,-499 314.811,-499"/>
<polygon fill="#1abc9c" stroke="#1abc9c" points="322.81,-489 322.811,-509 318.811,-509 318.81,-489 322.81,-489"/>
<polyline fill="none" stroke="#1abc9c" points="324.811,-499 314.811,-499 "/>
</g>
<!-- siblings_9 -->
<g id="node47" class="node"><title>siblings_9</title>
<polygon fill="#2ecc71" stroke="#cccccc" stroke-width="0" points="15,-472.5 8,-472.5 8,-471.5 15,-471.5 15,-472.5"/>
</g>
<!-- siblings_9&#45;&gt;Theodore -->
<g id="edge45" class="edge"><title>siblings_9&#45;&gt;Theodore</title>
<path fill="none" stroke="#2ecc71" d="M13,-471.333C13,-467.175 13,-445 13,-445 13,-445 33.8465,-445 33.8465,-445"/>
<polygon fill="#2ecc71" stroke="#2ecc71" points="41.8464,-435 41.8466,-455 37.8466,-455 37.8464,-435 41.8464,-435"/>
<polyline fill="none" stroke="#2ecc71" points="43.8465,-445 33.8465,-445 "/>
</g>
<!-- siblings_9&#45;&gt;Bernard -->
<g id="edge46" class="edge"><title>siblings_9&#45;&gt;Bernard</title>
<path fill="none" stroke="#2ecc71" d="M12,-472.667C12,-476.825 12,-499 12,-499 12,-499 33.7356,-499 33.7356,-499"/>
<polygon fill="#2ecc71" stroke="#2ecc71" points="41.7355,-489 41.7357,-509 37.7357,-509 37.7355,-489 41.7355,-489"/>
<polyline fill="none" stroke="#2ecc71" points="43.7356,-499 33.7356,-499 "/>
</g>
<!-- siblings_10 -->
<g id="node48" class="node"><title>siblings_10</title>
<polygon fill="#3498db" stroke="#cccccc" stroke-width="0" points="15,-345.5 8,-345.5 8,-344.5 15,-344.5 15,-345.5"/>
</g>
<!-- siblings_10&#45;&gt;Helen -->
<g id="edge47" class="edge"><title>siblings_10&#45;&gt;Helen</title>
<path fill="none" stroke="#3498db" d="M11,-345.517C11,-350.57 11,-391 11,-391 11,-391 33.9617,-391 33.9617,-391"/>
<polygon fill="#3498db" stroke="#3498db" points="41.9616,-381 41.9618,-401 37.9618,-401 37.9616,-381 41.9616,-381"/>
<polyline fill="none" stroke="#3498db" points="43.9617,-391 33.9617,-391 "/>
</g>
<!-- Alfred -->
<g id="node49" class="node"><title>Alfred</title>
<polygon fill="white" stroke="#cccccc" points="224,-355 44,-355 44,-319 224,-319 224,-355"/>
<text text-anchor="middle" x="134" y="-332.8" font-family="Helvetica, Arial, sans-serif" font-size="14.00">Alfred</text>
</g>
<!-- siblings_10&#45;&gt;Alfred -->
<g id="edge48" class="edge"><title>siblings_10&#45;&gt;Alfred</title>
<path fill="none" stroke="#3498db" d="M15.0341,-345C15.0341,-345 33.8106,-345 33.8106,-345"/>
<polygon fill="#3498db" stroke="#3498db" points="41.8105,-335 41.8107,-355 37.8107,-355 37.8105,-335 41.8105,-335"/>
<polyline fill="none" stroke="#3498db" points="43.8106,-345 33.8106,-345 "/>
</g>
</g>
</svg>
